<mxfile host="65bd71144e">
    <diagram id="HIP3nbAZw_EuaXWnEj3U" name="Page-1">
        <mxGraphModel dx="846" dy="602" grid="1" gridSize="10" guides="1" tooltips="1" connect="1" arrows="1" fold="1" page="1" pageScale="1" pageWidth="850" pageHeight="1100" math="0" shadow="0">
            <root>
                <mxCell id="0"/>
                <mxCell id="1" parent="0"/>
                <mxCell id="7" value="http://ics2o.mths.ca" style="swimlane;whiteSpace=wrap;html=1;" parent="1" vertex="1">
                    <mxGeometry x="45" y="50" width="760" height="480" as="geometry"/>
                </mxCell>
                <mxCell id="8" value="&lt;font style=&quot;font-size: 24px;&quot;&gt;Farenheit to Celsius, with JS&lt;/font&gt;" style="rounded=1;whiteSpace=wrap;html=1;" vertex="1" parent="7">
                    <mxGeometry y="30" width="760" height="60" as="geometry"/>
                </mxCell>
                <mxCell id="9" value="Formulas" style="text;html=1;align=center;verticalAlign=middle;resizable=0;points=[];autosize=1;strokeColor=none;fillColor=none;fontSize=24;" vertex="1" parent="7">
                    <mxGeometry x="310" y="130" width="120" height="40" as="geometry"/>
                </mxCell>
                <mxCell id="10" value="&lt;font style=&quot;font-size: 12px;&quot;&gt;(5/9) * (F - 32)&lt;/font&gt;" style="text;html=1;align=center;verticalAlign=middle;resizable=0;points=[];autosize=1;strokeColor=none;fillColor=none;fontSize=24;" vertex="1" parent="7">
                    <mxGeometry x="320" y="160" width="100" height="40" as="geometry"/>
                </mxCell>
                <mxCell id="12" value="32" style="text;html=1;align=center;verticalAlign=middle;resizable=0;points=[];autosize=1;strokeColor=none;fillColor=none;fontSize=12;" vertex="1" parent="7">
                    <mxGeometry x="305" y="240" width="40" height="30" as="geometry"/>
                </mxCell>
                <mxCell id="13" value="Calculate" style="rounded=1;whiteSpace=wrap;html=1;fontSize=12;" vertex="1" parent="7">
                    <mxGeometry x="305" y="300" width="135" height="40" as="geometry"/>
                </mxCell>
                <mxCell id="14" value="This temp in Fahrenheit is equal to 0&lt;span style=&quot;background-color: rgba(66, 133, 244, 0.3); color: rgb(226, 238, 255); font-family: &amp;quot;Google Sans&amp;quot;, arial, sans-serif; font-size: 20px; text-align: left;&quot;&gt;Â°c&lt;/span&gt;" style="text;html=1;align=center;verticalAlign=middle;resizable=0;points=[];autosize=1;strokeColor=none;fillColor=none;fontSize=12;" vertex="1" parent="7">
                    <mxGeometry x="240" y="380" width="240" height="40" as="geometry"/>
                </mxCell>
                <mxCell id="11" value="" style="line;strokeWidth=2;html=1;fontSize=12;" vertex="1" parent="1">
                    <mxGeometry x="340" y="310" width="160" height="10" as="geometry"/>
                </mxCell>
            </root>
        </mxGraphModel>
    </diagram>
</mxfile>